HIERARCHY
ROOT root
{
	OFFSET	0	13.1	24.9
	CHANNELS 6  Xposition Yposition Zposition Xrotation Yrotation Zrotation
	JOINT spine_1
	{
		OFFSET	0	9.99999	0
		CHANNELS 3  Xrotation Yrotation Zrotation
		JOINT spine_2
		{
			OFFSET	0	112	-10
			CHANNELS 3  Xrotation Yrotation Zrotation
			JOINT spine_3
			{
				OFFSET	0	206.5	19.3
				CHANNELS 3  Xrotation Yrotation Zrotation
				JOINT spine_4
				{
					OFFSET	0	110.4	14.6
					CHANNELS 3  Xrotation Yrotation Zrotation
					JOINT neck_1
					{
						OFFSET	0	71.8	-50.3
						CHANNELS 3  Xrotation Yrotation Zrotation
						JOINT neck_2
						{
							OFFSET	0	86.2	-25.8
							CHANNELS 3  Xrotation Yrotation Zrotation
							JOINT head_ee
							{
								OFFSET	0	179.8	-8.7
								CHANNELS 3  Xrotation Yrotation Zrotation
								End Site
								{
									OFFSET	1	0	0
								}
							}
						}
					}
					JOINT left_clavicle
					{
						OFFSET	-43.2	22.4	-70.8
						CHANNELS 3  Xrotation Yrotation Zrotation
						JOINT left_shoulder
						{
							OFFSET	-93.9	-5.79999	48.7
							CHANNELS 3  Xrotation Yrotation Zrotation
							JOINT left_elbow
							{
								OFFSET	-291.4	-30.8	15.2
								CHANNELS 3  Xrotation Yrotation Zrotation
								JOINT left_lowarm_twist
								{
									OFFSET	-110.7	-3.89999	13.6
									CHANNELS 3  Xrotation Yrotation Zrotation
									JOINT left_hand
									{
										OFFSET	-110.7	-3.89999	13.6
										CHANNELS 3  Xrotation Yrotation Zrotation
										JOINT left_ee
										{
											OFFSET	-80.8	-5.10001	12.1
											CHANNELS 3  Xrotation Yrotation Zrotation
											End Site
											{
												OFFSET	1	0	0
											}
										}
									}
								}
							}
						}
					}
					JOINT right_clavicle
					{
						OFFSET	43.2	22.4	-70.8
						CHANNELS 3  Xrotation Yrotation Zrotation
						JOINT right_shoulder
						{
							OFFSET	93.9	-5.79999	48.7
							CHANNELS 3  Xrotation Yrotation Zrotation
							JOINT right_elbow
							{
								OFFSET	291.4	-30.8	15.2
								CHANNELS 3  Xrotation Yrotation Zrotation
								JOINT right_lowarm_twist
								{
									OFFSET	110.7	-3.89999	13.6
									CHANNELS 3  Xrotation Yrotation Zrotation
									JOINT right_hand
									{
										OFFSET	110.7	-3.89999	13.6
										CHANNELS 3  Xrotation Yrotation Zrotation
										JOINT right_ee
										{
											OFFSET	80.8	-5.10001	12.1
											CHANNELS 3  Xrotation Yrotation Zrotation
											End Site
											{
												OFFSET	1	0	0
											}
										}
									}
								}
							}
						}
					}
				}
			}
		}
	}
	JOINT left_hip
	{
		OFFSET	-82.8	-127.5	0.300001
		CHANNELS 3  Xrotation Yrotation Zrotation
		JOINT left_knee
		{
			OFFSET	-28.2	-396.7	2.2
			CHANNELS 3  Xrotation Yrotation Zrotation
			JOINT left_ankle
			{
				OFFSET	-11.7	-411.3	35.4
				CHANNELS 3  Xrotation Yrotation Zrotation
				JOINT left_toes
				{
					OFFSET	0	-60	-88.6
					CHANNELS 3  Xrotation Yrotation Zrotation
					JOINT left_foot_ee
					{
						OFFSET	-22.5	-16.5	-42.2
						CHANNELS 3  Xrotation Yrotation Zrotation
						End Site
						{
							OFFSET	1	0	0
						}
					}
				}
			}
		}
	}
	JOINT right_hip
	{
		OFFSET	82.8	-127.5	0.300001
		CHANNELS 3  Xrotation Yrotation Zrotation
		JOINT right_knee
		{
			OFFSET	28.2	-396.7	2.2
			CHANNELS 3  Xrotation Yrotation Zrotation
			JOINT right_ankle
			{
				OFFSET	11.7	-411.3	35.4
				CHANNELS 3  Xrotation Yrotation Zrotation
				JOINT right_toes
				{
					OFFSET	0	-60	-88.6
					CHANNELS 3  Xrotation Yrotation Zrotation
					JOINT right_foot_ee
					{
						OFFSET	22.5	-16.5	-42.2
						CHANNELS 3  Xrotation Yrotation Zrotation
						End Site
						{
							OFFSET	1	0	0
						}
					}
				}
			}
		}
	}
}
MOTION
Frames: 11
Frame Time: 0.02
2943.54362272 693.684 -1845.27207121 2.30142494737 51.9769605867 10.4552429364 1.57351 -0.677099 -2.95904 1.57825 -0.487522 -2.99608 1.6044 0.0679642 -3.03469 1.59179 -0.411941 -3.0074 -5.97487 -2.61017 5.01191 -5.88252 -8.5181 4.58093 -0.0 0.0 -0.0 13.0289 -26.9166 25.6329 36.5274 39.5558 42.4769 0.472461 -13.1728 0.0545523 19.5225 0.269888 -2.46718 2.15274 11.7214 18.8592 -0.0 0.0 -0.0 6.27196 -19.8345 -11.6545 -13.4568 2.61194 -58.0166 0.772836 20.9488 -0.142882 -2.01674 0.0754096 -0.246477 4.06998 24.7684 -16.0875 0.0 0.0 0.0 21.8268 6.71365 -19.3959 -30.8285 0.0114406 4.67441 8.81601 -23.1622 -1.46941 -2.53101 0.0 0.0 -0.0 0.0 -0.0 14.0097 0.320698 -7.40246 -50.7743 1.29027 -7.43438 39.282 -20.9591 4.98436 7.87685 -0.0 -0.0 0.0 0.0 0.0 
2943.25197615 693.684 -1844.88447361 2.30632026207 52.07194193 10.449032765 1.57351 -0.677099 -2.95904 1.57825 -0.487522 -2.99608 1.6044 0.0679642 -3.03469 1.59179 -0.411941 -3.0074 -5.97487 -2.61017 5.01191 -5.88252 -8.5181 4.58093 -0.0 0.0 -0.0 13.0289 -26.9166 25.6329 36.5274 39.5558 42.4769 0.472461 -13.1728 0.0545523 19.5225 0.269888 -2.46718 2.15274 11.7214 18.8592 -0.0 0.0 -0.0 6.27196 -19.8345 -11.6545 -13.4568 2.61194 -58.0166 0.772836 20.9488 -0.142882 -2.01674 0.0754096 -0.246477 4.06998 24.7684 -16.0875 0.0 0.0 0.0 21.8268 6.71365 -19.3959 -30.8285 0.0114406 4.67441 8.81601 -23.1622 -1.46941 -2.53101 0.0 0.0 -0.0 0.0 -0.0 14.0097 0.320698 -7.40246 -50.7743 1.29027 -7.43438 39.282 -20.9591 4.98436 7.87685 -0.0 -0.0 0.0 0.0 0.0 
2923.55186889 693.429 -1862.06865015 4.31453913974 51.9123608621 10.2480636019 1.28581 -0.787191 -3.02589 1.2907 -0.593145 -3.06979 1.32369 -0.00723326 -3.1265 1.3104 -0.500677 -3.0862 -6.84438 -3.36827 3.10161 -6.80858 -8.49742 2.43491 -0.0 0.0 -0.0 12.5802 -27.4095 24.5396 38.6185 39.6202 41.3399 0.536652 -14.8875 0.070116 20.8458 0.257565 -2.63575 2.37343 11.0091 20.1201 -0.0 0.0 -0.0 5.66658 -19.8247 -10.735 -15.1632 3.76713 -59.389 0.660989 18.1303 -0.105462 -2.80858 0.107386 -0.342513 3.82752 22.1462 -15.9038 0.0 0.0 0.0 18.5989 8.87243 -22.9016 -30.6903 0.0170081 4.65392 9.79582 -24.034 -1.64142 -2.26313 0.0 0.0 -0.0 0.0 -0.0 16.5134 -2.5323 -5.76181 -46.499 0.931113 -6.88296 36.7163 -21.8442 4.75585 7.98858 -0.0 -0.0 0.0 0.0 0.0 
2899.95260229 691.268 -1886.44158214 3.66503584489 47.2557162758 11.6800206542 1.34116 -0.753912 -3.15633 1.34653 -0.551645 -3.19784 1.37848 0.0545076 -3.24457 1.36408 -0.458327 -3.21253 -6.80068 -4.68469 1.04768 -6.79239 -9.45274 0.114699 -0.0 0.0 -0.0 12.9461 -26.5839 25.4829 40.191 35.1441 42.4437 0.973551 -25.7461 0.222496 25.3688 0.186127 -3.20894 3.74876 6.44417 28.4065 -0.0 0.0 -0.0 5.24977 -19.3284 -10.1209 -17.8211 6.13945 -58.4159 0.601752 16.5989 -0.0877812 -5.06046 0.205551 -0.613135 3.37621 17.4219 -15.2783 0.0 0.0 0.0 18.1007 11.1215 -24.3464 -31.6741 -0.0236906 4.79941 12.4729 -26.9359 -2.13524 -0.180133 0.0 0.0 -0.0 0.0 -0.0 20.0501 -4.36749 -5.86015 -43.8957 0.733023 -6.53483 30.3702 -25.0063 4.15012 8.76075 -0.0 -0.0 0.0 0.0 0.0 
2868.94169072 682.56 -1916.93538217 2.10668575627 47.2269437722 13.0994198102 1.02954 -0.894154 -3.1903 1.03493 -0.689445 -3.24066 1.07576 -0.0555933 -3.31264 1.06091 -0.577784 -3.26239 -5.63191 -6.59412 0.0142924 -5.60932 -12.1773 -1.18756 -0.0 0.0 -0.0 11.625 -26.0129 22.5256 36.5682 31.3683 46.942 1.10587 -28.7137 0.28306 28.4771 0.110906 -3.59883 5.08747 7.20995 39.3871 -0.0 0.0 -0.0 4.38311 -16.4364 -8.81806 -19.8941 4.80461 -60.5094 0.524619 14.568 -0.0670569 -5.87039 0.243453 -0.70951 2.85997 13.9372 -13.4101 0.0 0.0 0.0 16.2468 13.0898 -26.1041 -30.8494 0.0105973 4.67749 9.68514 -25.6711 -1.65369 -2.14344 0.0 0.0 -0.0 0.0 -0.0 25.0747 -6.46276 -4.40883 -32.2149 0.0471225 -4.87908 22.2345 -27.4568 3.20681 5.36579 -0.0 -0.0 0.0 0.0 0.0 
2875.96167589 682.56 -1925.42349144 2.04587349429 45.6313010902 13.1833459533 1.02954 -0.894154 -3.1903 1.03493 -0.689445 -3.24066 1.07576 -0.0555933 -3.31264 1.06091 -0.577784 -3.26239 -5.63191 -6.59412 0.0142924 -5.60932 -12.1773 -1.18756 -0.0 0.0 -0.0 11.625 -26.0129 22.5256 36.5682 31.3683 46.942 1.10587 -28.7137 0.28306 28.4771 0.110906 -3.59883 5.08747 7.20995 39.3871 -0.0 0.0 -0.0 4.38311 -16.4364 -8.81806 -19.8941 4.80461 -60.5094 0.524619 14.568 -0.0670569 -5.87039 0.243453 -0.70951 2.85997 13.9372 -13.4101 0.0 0.0 0.0 16.2468 13.0898 -26.1041 -30.8494 0.0105973 4.67749 9.68514 -25.6711 -1.65369 -2.14344 0.0 0.0 -0.0 0.0 -0.0 25.0747 -6.46276 -4.40883 -32.2149 0.0471225 -4.87908 22.2345 -27.4568 3.20681 5.36579 -0.0 -0.0 0.0 0.0 0.0 
2882.13745207 682.56 -1932.50998951 1.99788116658 44.269573426 13.251271341 1.02954 -0.894154 -3.1903 1.03493 -0.689445 -3.24066 1.07576 -0.0555933 -3.31264 1.06091 -0.577784 -3.26239 -5.63191 -6.59412 0.0142924 -5.60932 -12.1773 -1.18756 -0.0 0.0 -0.0 11.625 -26.0129 22.5256 36.5682 31.3683 46.942 1.10587 -28.7137 0.28306 28.4771 0.110906 -3.59883 5.08747 7.20995 39.3871 -0.0 0.0 -0.0 4.38311 -16.4364 -8.81806 -19.8941 4.80461 -60.5094 0.524619 14.568 -0.0670569 -5.87039 0.243453 -0.70951 2.85997 13.9372 -13.4101 0.0 0.0 0.0 16.2468 13.0898 -26.1041 -30.8494 0.0105973 4.67749 9.68514 -25.6711 -1.65369 -2.14344 0.0 0.0 -0.0 0.0 -0.0 25.0747 -6.46276 -4.40883 -32.2149 0.0471225 -4.87908 22.2345 -27.4568 3.20681 5.36579 -0.0 -0.0 0.0 0.0 0.0 
2810.4600959 656.353 -1996.88379912 -1.2414281241 51.5649819685 11.7220283852 0.779199 -0.892884 -3.46986 0.785646 -0.67042 -3.51956 0.829383 0.032023 -3.58262 0.811872 -0.533826 -3.54282 1.07253 -7.53913 3.48425 1.37113 -16.2215 3.13417 -0.0 0.0 -0.0 12.2121 -27.4354 23.695 24.1266 29.8936 54.3234 0.903683 -24.1158 0.193042 27.0832 0.147255 -3.42449 7.99965 -3.71509 65.8183 -0.0 0.0 -0.0 1.21367 -16.9848 -3.87271 -20.0679 8.10431 -65.4925 0.580671 16.0479 -0.0818562 -4.4199 0.176544 -0.536545 0.361369 4.3977 -0.571397 0.0 0.0 0.0 10.0705 27.5291 -24.1907 -14.7196 0.321155 2.22986 9.62947 -21.8248 -1.57797 -7.97374 0.0 0.0 -0.0 0.0 -0.0 27.8398 -6.78802 1.29711 -10.092 -0.282167 -1.52111 -10.9837 -19.4339 -1.66878 -6.97897 0.0 0.0 0.0 0.0 0.0 
2817.82446365 656.353 -2004.94224144 -1.20793078063 50.2929547851 11.6788846686 0.779199 -0.892884 -3.46986 0.785646 -0.67042 -3.51956 0.829383 0.032023 -3.58262 0.811872 -0.533826 -3.54282 1.07253 -7.53913 3.48425 1.37113 -16.2215 3.13417 -0.0 0.0 -0.0 12.2121 -27.4354 23.695 24.1266 29.8936 54.3234 0.903683 -24.1158 0.193042 27.0832 0.147255 -3.42449 7.99965 -3.71509 65.8183 -0.0 0.0 -0.0 1.21367 -16.9848 -3.87271 -20.0679 8.10431 -65.4925 0.580671 16.0479 -0.0818562 -4.4199 0.176544 -0.536545 0.361369 4.3977 -0.571397 0.0 0.0 0.0 10.0705 27.5291 -24.1907 -14.7196 0.321155 2.22986 9.62947 -21.8248 -1.57797 -7.97374 0.0 0.0 -0.0 0.0 -0.0 27.8398 -6.78802 1.29711 -10.092 -0.282167 -1.52111 -10.9837 -19.4339 -1.66878 -6.97897 0.0 0.0 0.0 0.0 0.0 
2826.53937634 656.353 -2014.03221232 -1.17216428592 48.8255919949 11.6318939676 0.779199 -0.892884 -3.46986 0.785646 -0.67042 -3.51956 0.829383 0.032023 -3.58262 0.811872 -0.533826 -3.54282 1.07253 -7.53913 3.48425 1.37113 -16.2215 3.13417 -0.0 0.0 -0.0 12.2121 -27.4354 23.695 24.1266 29.8936 54.3234 0.903683 -24.1158 0.193042 27.0832 0.147255 -3.42449 7.99965 -3.71509 65.8183 -0.0 0.0 -0.0 1.21367 -16.9848 -3.87271 -20.0679 8.10431 -65.4925 0.580671 16.0479 -0.0818562 -4.4199 0.176544 -0.536545 0.361369 4.3977 -0.571397 0.0 0.0 0.0 10.0705 27.5291 -24.1907 -14.7196 0.321155 2.22986 9.62947 -21.8248 -1.57797 -7.97374 0.0 0.0 -0.0 0.0 -0.0 27.8398 -6.78802 1.29711 -10.092 -0.282167 -1.52111 -10.9837 -19.4339 -1.66878 -6.97897 0.0 0.0 0.0 0.0 0.0 
2833.21803219 656.353 -2020.69299863 -1.14721240141 47.7264859928 11.598464069 0.779199 -0.892884 -3.46986 0.785646 -0.67042 -3.51956 0.829383 0.032023 -3.58262 0.811872 -0.533826 -3.54282 1.07253 -7.53913 3.48425 1.37113 -16.2215 3.13417 -0.0 0.0 -0.0 12.2121 -27.4354 23.695 24.1266 29.8936 54.3234 0.903683 -24.1158 0.193042 27.0832 0.147255 -3.42449 7.99965 -3.71509 65.8183 -0.0 0.0 -0.0 1.21367 -16.9848 -3.87271 -20.0679 8.10431 -65.4925 0.580671 16.0479 -0.0818562 -4.4199 0.176544 -0.536545 0.361369 4.3977 -0.571397 0.0 0.0 0.0 10.0705 27.5291 -24.1907 -14.7196 0.321155 2.22986 9.62947 -21.8248 -1.57797 -7.97374 0.0 0.0 -0.0 0.0 -0.0 27.8398 -6.78802 1.29711 -10.092 -0.282167 -1.52111 -10.9837 -19.4339 -1.66878 -6.97897 0.0 0.0 0.0 0.0 0.0 
